# xmcd
# 
# Track frame offsets:
#     150
#     16807
#     33362
#     51588
#     62720
#     77417
#     94676
#     111016
#     128219
#     143029
#     160154
#     173910
# 
# Disc length: 2536
# 
# Revision: 7
# Processed by: cddbd v1.5.2PL0 Copyright (c) Steve Scherf et al.
# Submitted via: fre:ac v1.0.31
# 
DISCID=9509e60c
DTITLE=Gismo Graf Trio - The Pure Way
DYEAR=2012
DGENRE=Jazz
TTITLE0=Crazy Rhythm
TTITLE1=Night Breeze Bossa
TTITLE2=Speevey
TTITLE3=Almost like beeing in love
TTITLE4=Kurako
TTITLE5=La Comtesse
TTITLE6=Made for Joschi
TTITLE7=Micro
TTITLE8=Danse Norvegienne
TTITLE9=Tiger Rag
TTITLE10=Montagne St. Genevieve
TTITLE11=Sir Duke
EXTD=
EXTT0=
EXTT1=
EXTT2=
EXTT3=
EXTT4=
EXTT5=
EXTT6=
EXTT7=
EXTT8=
EXTT9=
EXTT10=
EXTT11=
PLAYORDER=
